<?xml version="1.0" encoding="UTF-8" standalone="no"?>
<!DOCTYPE svg PUBLIC "-//W3C//DTD SVG 1.1//EN"
 "http://www.w3.org/Graphics/SVG/1.1/DTD/svg11.dtd">
<!-- Generated by graphviz version 2.43.0 (0)
 -->
<!-- Title: G Pages: 1 -->
<svg width="367pt" height="222pt"
 viewBox="0.00 0.00 367.29 222.00" xmlns="http://www.w3.org/2000/svg" xmlns:xlink="http://www.w3.org/1999/xlink">
<g id="graph0" class="graph" transform="scale(1 1) rotate(0) translate(4 218)">
<title>G</title>
<polygon fill="white" stroke="transparent" points="-4,4 -4,-218 363.29,-218 363.29,4 -4,4"/>
<g id="clust1" class="cluster">
<title>cluster_Global</title>
<path fill="none" stroke="gray" d="M20,-8C20,-8 339.29,-8 339.29,-8 345.29,-8 351.29,-14 351.29,-20 351.29,-20 351.29,-194 351.29,-194 351.29,-200 345.29,-206 339.29,-206 339.29,-206 20,-206 20,-206 14,-206 8,-200 8,-194 8,-194 8,-20 8,-20 8,-14 14,-8 20,-8"/>
<text text-anchor="middle" x="179.65" y="-193.2" font-family="Times,serif" font-size="11.00" fill="gray">Global</text>
</g>
<g id="clust2" class="cluster">
<title>cluster_\goeranh</title>
<path fill="none" stroke="gray" d="M205.29,-16C205.29,-16 331.29,-16 331.29,-16 337.29,-16 343.29,-22 343.29,-28 343.29,-28 343.29,-166 343.29,-166 343.29,-172 337.29,-178 331.29,-178 331.29,-178 205.29,-178 205.29,-178 199.29,-178 193.29,-172 193.29,-166 193.29,-166 193.29,-28 193.29,-28 193.29,-22 199.29,-16 205.29,-16"/>
<text text-anchor="middle" x="268.29" y="-165.2" font-family="Times,serif" font-size="11.00" fill="gray">goeranh</text>
</g>
<g id="clust3" class="cluster">
<title>cluster_\goeranh\Transmit</title>
<path fill="none" stroke="gray" d="M213.29,-24C213.29,-24 323.29,-24 323.29,-24 329.29,-24 335.29,-30 335.29,-36 335.29,-36 335.29,-138 335.29,-138 335.29,-144 329.29,-150 323.29,-150 323.29,-150 213.29,-150 213.29,-150 207.29,-150 201.29,-144 201.29,-138 201.29,-138 201.29,-36 201.29,-36 201.29,-30 207.29,-24 213.29,-24"/>
<text text-anchor="middle" x="268.29" y="-137.2" font-family="Times,serif" font-size="11.00" fill="gray">Transmit</text>
</g>
<g id="clust4" class="cluster">
<title>cluster_Global\PHPUnit</title>
<path fill="none" stroke="gray" d="M28,-16C28,-16 141.29,-16 141.29,-16 147.29,-16 153.29,-22 153.29,-28 153.29,-28 153.29,-112 153.29,-112 153.29,-118 147.29,-124 141.29,-124 141.29,-124 28,-124 28,-124 22,-124 16,-118 16,-112 16,-112 16,-28 16,-28 16,-22 22,-16 28,-16"/>
<text text-anchor="middle" x="84.65" y="-111.2" font-family="Times,serif" font-size="11.00" fill="gray">PHPUnit</text>
</g>
<g id="clust5" class="cluster">
<title>cluster_Global\PHPUnit\Framework</title>
<path fill="none" stroke="gray" d="M36,-24C36,-24 133.29,-24 133.29,-24 139.29,-24 145.29,-30 145.29,-36 145.29,-36 145.29,-84 145.29,-84 145.29,-90 139.29,-96 133.29,-96 133.29,-96 36,-96 36,-96 30,-96 24,-90 24,-84 24,-84 24,-36 24,-36 24,-30 30,-24 36,-24"/>
<text text-anchor="middle" x="84.65" y="-83.2" font-family="Times,serif" font-size="11.00" fill="gray">Framework</text>
</g>
<!-- \\goeranh\\Transmit\\Transaction -->
<g id="node1" class="node">
<title>\\goeranh\\Transmit\\Transaction</title>
<polygon fill="none" stroke="black" points="313.79,-122 222.79,-122 222.79,-86 313.79,-86 313.79,-122"/>
<text text-anchor="middle" x="268.29" y="-101.2" font-family="Courier,monospace" font-size="11.00">Transaction</text>
</g>
<!-- \\goeranh\\Transmit\\TransactionTest -->
<g id="node2" class="node">
<title>\\goeranh\\Transmit\\TransactionTest</title>
<polygon fill="none" stroke="black" points="327.29,-68 209.29,-68 209.29,-32 327.29,-32 327.29,-68"/>
<text text-anchor="middle" x="268.29" y="-47.2" font-family="Courier,monospace" font-size="11.00">TransactionTest</text>
</g>
<!-- TestCase -->
<g id="node3" class="node">
<title>TestCase</title>
<ellipse fill="none" stroke="black" cx="84.65" cy="-50" rx="52.79" ry="18"/>
<text text-anchor="middle" x="84.65" y="-46.3" font-family="Times,serif" font-size="14.00" fill="gray">TestCase</text>
</g>
<!-- \\goeranh\\Transmit\\TransactionTest&#45;&gt;TestCase -->
<g id="edge1" class="edge">
<title>\\goeranh\\Transmit\\TransactionTest&#45;&gt;TestCase</title>
<path fill="none" stroke="black" d="M209.07,-50C189.45,-50 167.49,-50 147.6,-50"/>
<polygon fill="none" stroke="black" points="147.41,-46.5 137.41,-50 147.41,-53.5 147.41,-46.5"/>
</g>
</g>
</svg>
